<?xml version="1.0" encoding="UTF-8" standalone="no"?>
<svg width="128px" height="140px" viewBox="0 0 128 140" version="1.1" xmlns="http://www.w3.org/2000/svg" xmlns:xlink="http://www.w3.org/1999/xlink" xmlns:sketch="http://www.bohemiancoding.com/sketch/ns">
    <!-- Generator: Sketch 3.3 (11970) - http://www.bohemiancoding.com/sketch -->
    <title>Untitled</title>
    <desc>Created with Sketch.</desc>
    <defs></defs>
    <g id="Page-1" stroke="none" stroke-width="1" fill="none" fill-rule="evenodd" sketch:type="MSPage">
        <path d="M64.96,38.552 C63.232,37.4 60.928,37.256 59.2,36.824 C59.632,34.52 57.616,31.064 56.032,30.056 C52.432,28.472 45.376,26.312 44.08,26.312 C40.768,26.312 27.088,49.208 24.496,53.672 C22.192,57.848 19.6,64.472 18.592,68.504 C17.584,70.808 16,77 16,80.6 C16,81.752 16,84.488 16.432,86.072 C16.72,87.8 24.784,96.008 25.936,96.008 C27.088,96.008 28.24,95.288 28.384,94.856 C30.256,93.56 31.984,90.68 33.136,89.096 C37.744,81.032 43.216,70.664 47.392,63.896 C47.536,64.328 47.68,64.472 47.68,64.328 L47.68,64.472 C43.504,75.992 41.488,90.968 39.904,98.888 C39.184,101.768 38.176,104.648 37.168,106.808 C34.576,115.16 26.656,127.4 17.872,132.296 C16.72,133.016 14.56,134.888 13.84,134.888 C11.248,134.888 5.776,129.848 2.032,126.536 C1.6,126.392 0.736,126.104 0.304,126.536 C5.488,135.176 8.656,138.632 17.296,139.784 C18.304,140.36 23.2,139.64 24.208,139.352 C35.728,137.192 47.248,121.928 50.992,114.296 C55.744,105.656 56.752,101.768 59.488,88.232 C63.664,67.928 62.944,55.256 64.96,38.552 L64.96,38.552 Z M53.872,39.128 C53.872,42.008 41.92,63.608 40.768,65.48 C36.592,72.824 31.264,79.88 26.224,86.936 L26.224,84.2 C26.224,83.048 27.808,76.424 28.96,73.4 C29.968,70.808 49.696,37.112 52,37.112 C53.008,37.112 53.872,38.12 53.872,39.128 L53.872,39.128 Z M127.6,34.52 C127.6,25.736 125.008,19.256 119.968,9.608 C117.088,8.024 113.92,7.16 111.04,5.576 C109.6,4.568 105.424,0.104 102.256,0.104 C96.352,0.104 80.368,25.88 78.928,28.04 C76.048,33.656 72.736,41.144 71.152,45.896 C68.56,52.232 67.264,62.744 67.264,67.784 C67.264,76.568 71.008,87.656 82.672,92.264 C84.544,93.272 87.424,95.144 88.432,95.144 L92.176,95.144 C93.184,95.144 92.32,95.576 93.472,95.576 C94.48,95.576 98.224,95.576 99.232,95.144 C100.96,94.424 102.544,92.984 103.696,92.408 C106,90.824 109.024,88.664 110.32,87.08 C112.048,85.352 113.344,82.616 114.496,80.888 C114.928,80.168 115.504,79.16 115.936,78.008 C115.936,77.576 116.8,76.28 116.8,75.848 C119.824,70.088 123.424,60.296 125.728,52.232 C125.728,51.512 126.016,50.648 126.016,49.928 C126.736,44.888 127.6,35.24 127.6,34.52 L127.6,34.52 Z M114.208,27.608 C114.208,31.784 113.632,36.68 112.336,42.584 C111.184,48.488 109.6,53.96 107.44,59 C105.28,64.04 102.688,68.792 99.664,73.256 C96.64,77.576 92.464,80.456 87.136,81.896 C86.128,79.88 85.12,75.272 85.12,74.264 C85.12,73.112 85.696,73.544 85.696,73.112 C86.128,69.656 85.12,64.04 86.128,60.584 C86.56,59.576 87.424,58.28 87.568,56.984 C87.712,54.104 88.144,49.64 88.72,45.464 C88.72,45.032 88.288,44.456 88.288,44.024 C89.44,41.72 89.728,38.552 90.448,36.248 C90.448,36.104 90.448,36.104 90.304,36.104 C90.016,36.104 89.872,36.104 89.728,36.248 C91.024,32.648 92.032,29.192 92.752,25.592 L92.032,26.456 C93.76,21.704 97.216,14.936 101.392,11.336 C99.664,14.216 98.512,17.528 97.216,20.552 L97.504,21.992 C98.512,20.84 98.656,19.4 99.376,18.248 C99.952,17.816 100.816,17.24 100.816,16.808 C101.392,16.232 102.112,16.52 101.68,16.952 L102.256,17.528 C102.688,17.096 103.12,16.232 103.552,16.088 C105.712,14.792 110.176,15.656 110.176,13.064 C112.336,14.936 114.208,23.576 114.208,27.608 L114.208,27.608 Z" id="gO" fill="#FF768E" sketch:type="MSShapeGroup"></path>
    </g>
</svg>